name analog
datacolumns 19
datarows 19
range 0.5185 0.5275
endheader
time	ground_force_vx	ground_force_vy	ground_force_vz	ground_force_px	ground_force_py	ground_force_pz	l_ground_force_vx	l_ground_force_vy	l_ground_force_vz	l_ground_force_px	l_ground_force_py	l_ground_force_pz	ground_torque_x	ground_torque_y	ground_torque_z	l_ground_torque_x	l_ground_torque_y	l_ground_torque_z
0.5185	-0.0	-0.0	-0.0	25.716392517089844	-3.003697872161865	-80.81857299804688	29.116779327392575	-62.60088348388672	-456.3475341796875	-0.0	-0.0	-0.0	-0.0	-0.0	-0.0	116006.796875	-63806.79296875	13827.8388671875
0.519	-0.0	-0.0	-0.0	-2.298635005950928	2.5281758308410645	-108.94954681396484	27.855186462402344	-65.11383819580078	-469.1777038574219	-0.0	-0.0	-0.0	-0.0	-0.0	-0.0	119301.15625	-65683.4765625	13826.7138671875
0.5195	-0.0	-0.0	-0.0	-23.8079833984375	6.661152362823486	-139.02838134765625	25.85165786743164	-68.23486328125	-481.2171630859375	-0.0	-0.0	-0.0	-0.0	-0.0	-0.0	121934.46875	-66826.4765625	13702.814453125
0.52	-0.0	-0.0	-0.0	-46.30370330810547	13.101568222045898	-168.19497680664062	24.087936401367188	-71.15583038330078	-488.79986572265625	-0.0	-0.0	-0.0	-0.0	-0.0	-0.0	124219.7734375	-67960.5859375	13506.80078125
0.5205	-0.0	-0.0	-0.0	-62.71796798706055	17.195358276367188	-189.8213348388672	22.015605926513672	-73.37954711914062	-494.4754638671875	-0.0	-0.0	-0.0	-0.0	-0.0	-0.0	125698.859375	-68511.8359375	13406.05859375
0.521	-0.0	-0.0	-0.0	-72.72782135009766	16.557024002075195	-206.8793029785156	20.16228675842285	-74.65298461914062	-497.973876953125	-0.0	-0.0	-0.0	-0.0	-0.0	-0.0	126407.9296875	-68579.2421875	12976.3349609375
0.5215	-0.0	-0.0	-0.0	-63.84840774536133	12.020694732666016	-217.4317321777344	17.648408889770508	-76.24551391601562	-498.96917724609375	-0.0	-0.0	-0.0	-0.0	-0.0	-0.0	126480.8828125	-68516.7109375	12728.26953125
0.522	-0.0	-0.0	-0.0	-55.50132751464844	6.927734851837158	-230.42552185058597	15.033832550048828	-77.65745544433594	-501.117431640625	-0.0	-0.0	-0.0	-0.0	-0.0	-0.0	126931.2890625	-68430.296875	12151.40625
0.5225	-0.0	-0.0	-0.0	-44.27834701538086	2.634119987487793	-285.0981140136719	11.588714599609377	-79.2999267578125	-502.5821838378906	-0.0	-0.0	-0.0	-0.0	-0.0	-0.0	127051.6640625	-68159.984375	11476.2578125
0.523	-0.0	-0.0	-0.0	-20.52863121032715	-0.862694501876831	-385.3218994140625	8.682791709899902	-79.62110900878906	-501.3817138671875	-0.0	-0.0	-0.0	-0.0	-0.0	-0.0	126750.90625	-67540.703125	10857.5234375
0.5235	-0.0	-0.0	-0.0	19.412128448486328	5.206626892089844	-587.8072509765625	6.264456272125244	-78.90361785888672	-497.3785705566406	-0.0	-0.0	-0.0	-0.0	-0.0	-0.0	125288.3203125	-66987.15625	10373.4140625
0.524	-0.0	-0.0	-0.0	85.42514038085938	20.88195037841797	-761.32421875	4.213394165039063	-76.67943572998047	-484.14111328125	-0.0	-0.0	-0.0	-0.0	-0.0	-0.0	121945.7890625	-64905.84375	9555.841796875
0.5245	-0.0	-0.0	-0.0	146.53952026367188	34.58949279785156	-816.8761596679688	1.5382311344146729	-72.93955993652344	-459.61224365234375	-0.0	-0.0	-0.0	-0.0	-0.0	-0.0	116036.046875	-61395.01171875	8421.0302734375
0.525	-0.0	-0.0	-0.0	160.17645263671875	40.64387130737305	-842.0264892578125	-2.7057292461395264	-67.74292755126953	-426.7510681152344	-0.0	-0.0	-0.0	-0.0	-0.0	-0.0	107613.9453125	-56868.26953125	6803.5986328125
0.5255	-0.0	-0.0	-0.0	125.84561157226562	45.75154495239258	-871.7260131835938	-7.889223575592041	-61.65743255615234	-390.9659118652344	-0.0	-0.0	-0.0	-0.0	-0.0	-0.0	98645.578125	-51592.55859375	4805.7421875
0.526	-0.0	-0.0	-0.0	90.22801208496094	51.583290100097656	-859.48779296875	-12.495935440063477	-54.96452331542969	-356.92535400390625	-0.0	-0.0	-0.0	-0.0	-0.0	-0.0	89641.0	-46829.8671875	2797.4619140625
0.5265	-0.0	-0.0	-0.0	61.12359619140625	61.50123977661133	-822.550048828125	-15.132991790771484	-48.072635650634766	-320.6606140136719	-0.0	-0.0	-0.0	-0.0	-0.0	-0.0	80864.3671875	-42056.5078125	1185.2652587890625
0.527	-0.0	-0.0	-0.0	39.64611053466797	74.26556396484375	-794.7945556640625	-16.07929039001465	-39.94577407836914	-285.8805847167969	-0.0	-0.0	-0.0	-0.0	-0.0	-0.0	72178.1875	-37313.96484375	34.5765495300293
0.5275	-0.0	-0.0	-0.0	28.044851303100582	87.07606506347656	-787.4918823242188	-16.352313995361328	-33.12932586669922	-253.558349609375	-0.0	-0.0	-0.0	-0.0	-0.0	-0.0	64085.46875	-32981.5	-812.1950073242188
